<?xml version="1.0" standalone="no"?><!DOCTYPE svg PUBLIC "-//W3C//DTD SVG 1.1//EN" "http://www.w3.org/Graphics/SVG/1.1/DTD/svg11.dtd"><svg t="1617960835240" class="icon" viewBox="0 0 1024 1024" version="1.1" xmlns="http://www.w3.org/2000/svg" p-id="1880" xmlns:xlink="http://www.w3.org/1999/xlink" width="200" height="200"><defs><style type="text/css"></style></defs><path d="M512 64c247.424 0 448 200.576 448 448S759.424 960 512 960 64 759.424 64 512 264.576 64 512 64z m-54.358 295C425.784 359 400 384.8 400 416.588V607.35c0 10.468 2.875 20.782 8.106 29.694 16.67 27.317 52.077 36.039 79.258 19.796l155.815-94.481c7.947-4.85 14.527-11.375 18.913-18.896 17.121-27.34 8.725-62.847-18.013-79.184l-155.814-96.28c-9.515-6.025-19.99-8.999-30.623-8.999z" fill="#ff142b" p-id="1881"></path></svg>